<mxfile host="app.diagrams.net" agent="Mozilla/5.0 (Macintosh; Intel Mac OS X 10_15_7) AppleWebKit/537.36 (KHTML, like Gecko) Chrome/135.0.0.0 Safari/537.36" version="26.2.13">
  <diagram id="C5RBs43oDa-KdzZeNtuy" name="Page-1">
    <mxGraphModel dx="462" dy="314" grid="1" gridSize="10" guides="1" tooltips="1" connect="1" arrows="1" fold="1" page="1" pageScale="1" pageWidth="827" pageHeight="1169" math="0" shadow="0">
      <root>
        <mxCell id="WIyWlLk6GJQsqaUBKTNV-0" />
        <mxCell id="WIyWlLk6GJQsqaUBKTNV-1" parent="WIyWlLk6GJQsqaUBKTNV-0" />
        <mxCell id="WIyWlLk6GJQsqaUBKTNV-2" value="" style="rounded=0;html=1;jettySize=auto;orthogonalLoop=1;fontSize=11;endArrow=block;endFill=0;endSize=8;strokeWidth=1;shadow=0;labelBackgroundColor=none;edgeStyle=orthogonalEdgeStyle;" parent="WIyWlLk6GJQsqaUBKTNV-1" source="WIyWlLk6GJQsqaUBKTNV-3" target="WIyWlLk6GJQsqaUBKTNV-6" edge="1">
          <mxGeometry relative="1" as="geometry" />
        </mxCell>
        <mxCell id="WIyWlLk6GJQsqaUBKTNV-3" value="Initialize Deck and draw&lt;div&gt;8 Cards to hand&lt;/div&gt;" style="rounded=1;whiteSpace=wrap;html=1;fontSize=10;glass=0;strokeWidth=1;shadow=0;fillColor=#d5e8d4;strokeColor=#82b366;" parent="WIyWlLk6GJQsqaUBKTNV-1" vertex="1">
          <mxGeometry x="160" y="80" width="120" height="40" as="geometry" />
        </mxCell>
        <mxCell id="WIyWlLk6GJQsqaUBKTNV-4" value="Yes" style="rounded=0;html=1;jettySize=auto;orthogonalLoop=1;fontSize=11;endArrow=block;endFill=0;endSize=8;strokeWidth=1;shadow=0;labelBackgroundColor=none;edgeStyle=orthogonalEdgeStyle;entryX=0.5;entryY=0;entryDx=0;entryDy=0;" parent="WIyWlLk6GJQsqaUBKTNV-1" source="WIyWlLk6GJQsqaUBKTNV-6" target="x6hVaxn2w1FB52t0nsVm-21" edge="1">
          <mxGeometry x="0.2007" y="10" relative="1" as="geometry">
            <mxPoint as="offset" />
            <mxPoint x="220" y="270" as="targetPoint" />
          </mxGeometry>
        </mxCell>
        <mxCell id="WIyWlLk6GJQsqaUBKTNV-5" value="No" style="edgeStyle=orthogonalEdgeStyle;rounded=0;html=1;jettySize=auto;orthogonalLoop=1;fontSize=11;endArrow=block;endFill=0;endSize=8;strokeWidth=1;shadow=0;labelBackgroundColor=none;entryX=0.5;entryY=0;entryDx=0;entryDy=0;" parent="WIyWlLk6GJQsqaUBKTNV-1" source="WIyWlLk6GJQsqaUBKTNV-6" target="x6hVaxn2w1FB52t0nsVm-0" edge="1">
          <mxGeometry x="-0.8889" y="10" relative="1" as="geometry">
            <mxPoint as="offset" />
            <mxPoint x="320" y="210" as="targetPoint" />
          </mxGeometry>
        </mxCell>
        <mxCell id="WIyWlLk6GJQsqaUBKTNV-6" value="Current Hand&lt;div&gt;contains target&lt;/div&gt;&lt;div&gt;hand&lt;/div&gt;" style="rhombus;html=1;shadow=0;align=center;strokeWidth=1;spacing=6;spacingTop=4;spacingLeft=0;spacingRight=0;whiteSpace=wrap;fontSize=10;fillColor=#fff2cc;strokeColor=#d6b656;" parent="WIyWlLk6GJQsqaUBKTNV-1" vertex="1">
          <mxGeometry x="170" y="180" width="100" height="60" as="geometry" />
        </mxCell>
        <mxCell id="x6hVaxn2w1FB52t0nsVm-3" value="" style="edgeStyle=orthogonalEdgeStyle;shape=connector;rounded=0;orthogonalLoop=1;jettySize=auto;html=1;shadow=0;strokeColor=default;strokeWidth=1;align=center;verticalAlign=middle;fontFamily=Helvetica;fontSize=11;fontColor=default;labelBackgroundColor=none;endArrow=block;endFill=0;endSize=8;" edge="1" parent="WIyWlLk6GJQsqaUBKTNV-1" source="x6hVaxn2w1FB52t0nsVm-0" target="x6hVaxn2w1FB52t0nsVm-1">
          <mxGeometry relative="1" as="geometry" />
        </mxCell>
        <mxCell id="x6hVaxn2w1FB52t0nsVm-5" value="Yes" style="edgeLabel;html=1;align=center;verticalAlign=middle;resizable=0;points=[];fontFamily=Helvetica;fontSize=11;fontColor=default;labelBackgroundColor=none;" vertex="1" connectable="0" parent="x6hVaxn2w1FB52t0nsVm-3">
          <mxGeometry x="-0.5" relative="1" as="geometry">
            <mxPoint x="-3" y="-10" as="offset" />
          </mxGeometry>
        </mxCell>
        <mxCell id="x6hVaxn2w1FB52t0nsVm-7" value="" style="edgeStyle=orthogonalEdgeStyle;shape=connector;rounded=0;orthogonalLoop=1;jettySize=auto;html=1;shadow=0;strokeColor=default;strokeWidth=1;align=center;verticalAlign=middle;fontFamily=Helvetica;fontSize=10;fontColor=default;labelBackgroundColor=none;endArrow=block;endFill=0;endSize=8;" edge="1" parent="WIyWlLk6GJQsqaUBKTNV-1" source="x6hVaxn2w1FB52t0nsVm-0">
          <mxGeometry relative="1" as="geometry">
            <mxPoint x="380.02857142857147" y="270.01714285714286" as="targetPoint" />
          </mxGeometry>
        </mxCell>
        <mxCell id="x6hVaxn2w1FB52t0nsVm-8" value="No" style="edgeLabel;html=1;align=center;verticalAlign=middle;resizable=0;points=[];shadow=0;strokeColor=default;strokeWidth=1;spacingLeft=0;spacingRight=0;spacingTop=0;spacing=6;fontFamily=Helvetica;fontSize=10;fontColor=default;fillColor=default;" vertex="1" connectable="0" parent="x6hVaxn2w1FB52t0nsVm-7">
          <mxGeometry x="0.22" y="2" relative="1" as="geometry">
            <mxPoint x="8" y="-9" as="offset" />
          </mxGeometry>
        </mxCell>
        <mxCell id="x6hVaxn2w1FB52t0nsVm-0" value="Have Discards remaining" style="rhombus;html=1;shadow=0;align=center;strokeWidth=1;spacing=6;spacingTop=0;spacingLeft=0;spacingRight=0;whiteSpace=wrap;fontSize=10;fillColor=#fff2cc;strokeColor=#d6b656;" vertex="1" parent="WIyWlLk6GJQsqaUBKTNV-1">
          <mxGeometry x="330" y="180" width="100" height="60" as="geometry" />
        </mxCell>
        <mxCell id="x6hVaxn2w1FB52t0nsVm-4" value="" style="edgeStyle=orthogonalEdgeStyle;shape=connector;rounded=0;orthogonalLoop=1;jettySize=auto;html=1;shadow=0;strokeColor=default;strokeWidth=1;align=center;verticalAlign=middle;fontFamily=Helvetica;fontSize=11;fontColor=default;labelBackgroundColor=none;endArrow=block;endFill=0;endSize=8;exitX=1;exitY=0.5;exitDx=0;exitDy=0;" edge="1" parent="WIyWlLk6GJQsqaUBKTNV-1" source="x6hVaxn2w1FB52t0nsVm-1">
          <mxGeometry relative="1" as="geometry">
            <mxPoint x="220" y="140" as="targetPoint" />
            <Array as="points">
              <mxPoint x="620" y="210" />
              <mxPoint x="620" y="140" />
            </Array>
          </mxGeometry>
        </mxCell>
        <mxCell id="x6hVaxn2w1FB52t0nsVm-1" value="Discard cards according to the Strategy and draw&lt;div&gt;new Cards&lt;/div&gt;" style="rounded=1;whiteSpace=wrap;html=1;fontSize=10;glass=0;strokeWidth=1;shadow=0;" vertex="1" parent="WIyWlLk6GJQsqaUBKTNV-1">
          <mxGeometry x="480" y="190" width="120" height="40" as="geometry" />
        </mxCell>
        <mxCell id="x6hVaxn2w1FB52t0nsVm-11" value="" style="edgeStyle=orthogonalEdgeStyle;shape=connector;rounded=0;orthogonalLoop=1;jettySize=auto;html=1;shadow=0;strokeColor=default;strokeWidth=1;align=center;verticalAlign=middle;fontFamily=Helvetica;fontSize=10;fontColor=default;labelBackgroundColor=none;endArrow=block;endFill=0;endSize=8;" edge="1" parent="WIyWlLk6GJQsqaUBKTNV-1" target="x6hVaxn2w1FB52t0nsVm-10">
          <mxGeometry relative="1" as="geometry">
            <mxPoint x="430" y="300" as="sourcePoint" />
          </mxGeometry>
        </mxCell>
        <mxCell id="x6hVaxn2w1FB52t0nsVm-12" value="Yes" style="edgeLabel;html=1;align=center;verticalAlign=middle;resizable=0;points=[];shadow=0;strokeColor=default;strokeWidth=1;spacingLeft=0;spacingRight=0;spacingTop=0;spacing=6;fontFamily=Helvetica;fontSize=10;fontColor=default;fillColor=default;" vertex="1" connectable="0" parent="x6hVaxn2w1FB52t0nsVm-11">
          <mxGeometry x="-0.792" y="-2" relative="1" as="geometry">
            <mxPoint x="5" y="-12" as="offset" />
          </mxGeometry>
        </mxCell>
        <mxCell id="x6hVaxn2w1FB52t0nsVm-15" value="" style="edgeStyle=orthogonalEdgeStyle;shape=connector;rounded=0;orthogonalLoop=1;jettySize=auto;html=1;shadow=0;strokeColor=default;strokeWidth=1;align=center;verticalAlign=middle;fontFamily=Helvetica;fontSize=10;fontColor=default;labelBackgroundColor=none;endArrow=block;endFill=0;endSize=8;entryX=0.5;entryY=0;entryDx=0;entryDy=0;" edge="1" parent="WIyWlLk6GJQsqaUBKTNV-1" target="x6hVaxn2w1FB52t0nsVm-44">
          <mxGeometry relative="1" as="geometry">
            <mxPoint x="380" y="330" as="sourcePoint" />
            <mxPoint x="380" y="360" as="targetPoint" />
            <Array as="points" />
          </mxGeometry>
        </mxCell>
        <mxCell id="x6hVaxn2w1FB52t0nsVm-17" value="No" style="edgeLabel;html=1;align=center;verticalAlign=middle;resizable=0;points=[];shadow=0;strokeColor=default;strokeWidth=1;spacingLeft=0;spacingRight=0;spacingTop=0;spacing=6;fontFamily=Helvetica;fontSize=10;fontColor=default;fillColor=default;" vertex="1" connectable="0" parent="x6hVaxn2w1FB52t0nsVm-15">
          <mxGeometry relative="1" as="geometry">
            <mxPoint x="10" y="-5" as="offset" />
          </mxGeometry>
        </mxCell>
        <mxCell id="x6hVaxn2w1FB52t0nsVm-6" value="Have more than 1 Play remaining" style="rhombus;html=1;shadow=0;align=center;strokeWidth=1;spacing=6;spacingTop=0;spacingLeft=0;spacingRight=0;whiteSpace=wrap;fontSize=10;fillColor=#fff2cc;strokeColor=#d6b656;" vertex="1" parent="WIyWlLk6GJQsqaUBKTNV-1">
          <mxGeometry x="330" y="270" width="100" height="60" as="geometry" />
        </mxCell>
        <mxCell id="x6hVaxn2w1FB52t0nsVm-13" style="edgeStyle=orthogonalEdgeStyle;shape=connector;rounded=0;orthogonalLoop=1;jettySize=auto;html=1;shadow=0;strokeColor=default;strokeWidth=1;align=center;verticalAlign=middle;fontFamily=Helvetica;fontSize=10;fontColor=default;labelBackgroundColor=none;endArrow=block;endFill=0;endSize=8;exitX=1;exitY=0.5;exitDx=0;exitDy=0;" edge="1" parent="WIyWlLk6GJQsqaUBKTNV-1" source="x6hVaxn2w1FB52t0nsVm-10">
          <mxGeometry relative="1" as="geometry">
            <mxPoint x="620" y="210" as="targetPoint" />
            <Array as="points">
              <mxPoint x="620" y="300" />
            </Array>
          </mxGeometry>
        </mxCell>
        <mxCell id="x6hVaxn2w1FB52t0nsVm-10" value="Use Play as a Discard&lt;div&gt;and draw&amp;nbsp;&lt;span style=&quot;background-color: transparent; color: light-dark(rgb(0, 0, 0), rgb(255, 255, 255));&quot;&gt;new Cards&lt;/span&gt;&lt;/div&gt;" style="rounded=1;whiteSpace=wrap;html=1;fontSize=10;glass=0;strokeWidth=1;shadow=0;" vertex="1" parent="WIyWlLk6GJQsqaUBKTNV-1">
          <mxGeometry x="480" y="280" width="120" height="40" as="geometry" />
        </mxCell>
        <mxCell id="x6hVaxn2w1FB52t0nsVm-14" value="GAME OVER" style="rounded=1;whiteSpace=wrap;html=1;fontSize=18;glass=0;strokeWidth=1;shadow=0;fillColor=#f8cecc;strokeColor=#b85450;" vertex="1" parent="WIyWlLk6GJQsqaUBKTNV-1">
          <mxGeometry x="480" y="550" width="120" height="40" as="geometry" />
        </mxCell>
        <mxCell id="x6hVaxn2w1FB52t0nsVm-20" value="" style="edgeStyle=orthogonalEdgeStyle;shape=connector;rounded=0;orthogonalLoop=1;jettySize=auto;html=1;shadow=0;strokeColor=default;strokeWidth=1;align=center;verticalAlign=middle;fontFamily=Helvetica;fontSize=10;fontColor=default;labelBackgroundColor=none;endArrow=block;endFill=0;endSize=8;" edge="1" parent="WIyWlLk6GJQsqaUBKTNV-1" source="x6hVaxn2w1FB52t0nsVm-18" target="x6hVaxn2w1FB52t0nsVm-19">
          <mxGeometry relative="1" as="geometry" />
        </mxCell>
        <mxCell id="x6hVaxn2w1FB52t0nsVm-18" value="Play the Hand&lt;span style=&quot;background-color: transparent; color: light-dark(rgb(0, 0, 0), rgb(255, 255, 255));&quot;&gt;&amp;nbsp;and decrement the number of remaining Plays&lt;/span&gt;" style="rounded=1;whiteSpace=wrap;html=1;fontSize=10;glass=0;strokeWidth=1;shadow=0;" vertex="1" parent="WIyWlLk6GJQsqaUBKTNV-1">
          <mxGeometry x="160" y="429.62" width="120" height="40" as="geometry" />
        </mxCell>
        <mxCell id="x6hVaxn2w1FB52t0nsVm-27" value="" style="edgeStyle=orthogonalEdgeStyle;shape=connector;rounded=0;orthogonalLoop=1;jettySize=auto;html=1;shadow=0;strokeColor=default;strokeWidth=1;align=center;verticalAlign=middle;fontFamily=Helvetica;fontSize=10;fontColor=default;labelBackgroundColor=none;endArrow=block;endFill=0;endSize=8;" edge="1" parent="WIyWlLk6GJQsqaUBKTNV-1" source="x6hVaxn2w1FB52t0nsVm-19" target="x6hVaxn2w1FB52t0nsVm-26">
          <mxGeometry relative="1" as="geometry" />
        </mxCell>
        <mxCell id="x6hVaxn2w1FB52t0nsVm-19" value="Calculated Score gets added to the current Score" style="rounded=1;whiteSpace=wrap;html=1;fontSize=10;glass=0;strokeWidth=1;shadow=0;" vertex="1" parent="WIyWlLk6GJQsqaUBKTNV-1">
          <mxGeometry x="160" y="510" width="120" height="40" as="geometry" />
        </mxCell>
        <mxCell id="x6hVaxn2w1FB52t0nsVm-22" value="" style="edgeStyle=orthogonalEdgeStyle;shape=connector;rounded=0;orthogonalLoop=1;jettySize=auto;html=1;shadow=0;strokeColor=default;strokeWidth=1;align=center;verticalAlign=middle;fontFamily=Helvetica;fontSize=10;fontColor=default;labelBackgroundColor=none;endArrow=block;endFill=0;endSize=8;" edge="1" parent="WIyWlLk6GJQsqaUBKTNV-1" source="x6hVaxn2w1FB52t0nsVm-21" target="x6hVaxn2w1FB52t0nsVm-18">
          <mxGeometry relative="1" as="geometry" />
        </mxCell>
        <mxCell id="x6hVaxn2w1FB52t0nsVm-25" value="Yes" style="edgeLabel;html=1;align=center;verticalAlign=middle;resizable=0;points=[];shadow=0;strokeColor=default;strokeWidth=1;spacingLeft=0;spacingRight=0;spacingTop=0;spacing=6;fontFamily=Helvetica;fontSize=10;fontColor=default;fillColor=default;" vertex="1" connectable="0" parent="x6hVaxn2w1FB52t0nsVm-22">
          <mxGeometry x="-0.3581" relative="1" as="geometry">
            <mxPoint x="10" y="-22" as="offset" />
          </mxGeometry>
        </mxCell>
        <mxCell id="x6hVaxn2w1FB52t0nsVm-23" value="" style="edgeStyle=orthogonalEdgeStyle;shape=connector;rounded=0;orthogonalLoop=1;jettySize=auto;html=1;shadow=0;strokeColor=default;strokeWidth=1;align=center;verticalAlign=middle;fontFamily=Helvetica;fontSize=10;fontColor=default;labelBackgroundColor=none;endArrow=block;endFill=0;endSize=8;" edge="1" parent="WIyWlLk6GJQsqaUBKTNV-1" source="x6hVaxn2w1FB52t0nsVm-21">
          <mxGeometry relative="1" as="geometry">
            <mxPoint x="380" y="460" as="targetPoint" />
            <Array as="points">
              <mxPoint x="300" y="300" />
              <mxPoint x="300" y="460" />
              <mxPoint x="380" y="460" />
            </Array>
          </mxGeometry>
        </mxCell>
        <mxCell id="x6hVaxn2w1FB52t0nsVm-24" value="No" style="edgeLabel;html=1;align=center;verticalAlign=middle;resizable=0;points=[];shadow=0;strokeColor=default;strokeWidth=1;spacingLeft=0;spacingRight=0;spacingTop=0;spacing=6;fontFamily=Helvetica;fontSize=10;fontColor=default;fillColor=default;" vertex="1" connectable="0" parent="x6hVaxn2w1FB52t0nsVm-23">
          <mxGeometry x="-0.8727" y="-1" relative="1" as="geometry">
            <mxPoint x="-7" y="-11" as="offset" />
          </mxGeometry>
        </mxCell>
        <mxCell id="x6hVaxn2w1FB52t0nsVm-21" value="Have Plays remaining" style="rhombus;html=1;shadow=0;align=center;strokeWidth=1;spacing=6;spacingTop=4;spacingLeft=0;spacingRight=0;whiteSpace=wrap;fontSize=10;fillColor=#fff2cc;strokeColor=#d6b656;" vertex="1" parent="WIyWlLk6GJQsqaUBKTNV-1">
          <mxGeometry x="170" y="270" width="100" height="60" as="geometry" />
        </mxCell>
        <mxCell id="x6hVaxn2w1FB52t0nsVm-29" value="" style="edgeStyle=orthogonalEdgeStyle;shape=connector;rounded=0;orthogonalLoop=1;jettySize=auto;html=1;shadow=0;strokeColor=default;strokeWidth=1;align=center;verticalAlign=middle;fontFamily=Helvetica;fontSize=10;fontColor=default;labelBackgroundColor=none;endArrow=block;endFill=0;endSize=8;" edge="1" parent="WIyWlLk6GJQsqaUBKTNV-1" source="x6hVaxn2w1FB52t0nsVm-26" target="x6hVaxn2w1FB52t0nsVm-28">
          <mxGeometry relative="1" as="geometry" />
        </mxCell>
        <mxCell id="x6hVaxn2w1FB52t0nsVm-30" value="Yes" style="edgeLabel;html=1;align=center;verticalAlign=middle;resizable=0;points=[];shadow=0;strokeColor=default;strokeWidth=1;spacingLeft=0;spacingRight=0;spacingTop=0;spacing=6;fontFamily=Helvetica;fontSize=10;fontColor=default;fillColor=default;" vertex="1" connectable="0" parent="x6hVaxn2w1FB52t0nsVm-29">
          <mxGeometry x="-0.4781" y="2" relative="1" as="geometry">
            <mxPoint x="-3" y="-8" as="offset" />
          </mxGeometry>
        </mxCell>
        <mxCell id="x6hVaxn2w1FB52t0nsVm-33" style="edgeStyle=orthogonalEdgeStyle;shape=connector;rounded=0;orthogonalLoop=1;jettySize=auto;html=1;shadow=0;strokeColor=default;strokeWidth=1;align=center;verticalAlign=middle;fontFamily=Helvetica;fontSize=10;fontColor=default;labelBackgroundColor=none;endArrow=block;endFill=0;endSize=8;exitX=0.5;exitY=1;exitDx=0;exitDy=0;" edge="1" parent="WIyWlLk6GJQsqaUBKTNV-1" source="x6hVaxn2w1FB52t0nsVm-26">
          <mxGeometry relative="1" as="geometry">
            <mxPoint x="620" y="620" as="targetPoint" />
            <mxPoint x="220" y="655" as="sourcePoint" />
            <Array as="points">
              <mxPoint x="220" y="680" />
              <mxPoint x="620" y="680" />
            </Array>
          </mxGeometry>
        </mxCell>
        <mxCell id="x6hVaxn2w1FB52t0nsVm-34" value="No" style="edgeLabel;html=1;align=center;verticalAlign=middle;resizable=0;points=[];shadow=0;strokeColor=default;strokeWidth=1;spacingLeft=0;spacingRight=0;spacingTop=0;spacing=6;fontFamily=Helvetica;fontSize=10;fontColor=default;fillColor=default;" vertex="1" connectable="0" parent="x6hVaxn2w1FB52t0nsVm-33">
          <mxGeometry x="-0.9743" relative="1" as="geometry">
            <mxPoint x="10" y="4" as="offset" />
          </mxGeometry>
        </mxCell>
        <mxCell id="x6hVaxn2w1FB52t0nsVm-26" value="Has the Score reached the Target Score" style="rhombus;html=1;shadow=0;align=center;strokeWidth=1;spacing=6;spacingTop=4;spacingLeft=0;spacingRight=0;whiteSpace=wrap;fontSize=10;fillColor=#fff2cc;strokeColor=#d6b656;" vertex="1" parent="WIyWlLk6GJQsqaUBKTNV-1">
          <mxGeometry x="170" y="590" width="100" height="60" as="geometry" />
        </mxCell>
        <mxCell id="x6hVaxn2w1FB52t0nsVm-31" style="edgeStyle=orthogonalEdgeStyle;shape=connector;rounded=0;orthogonalLoop=1;jettySize=auto;html=1;shadow=0;strokeColor=default;strokeWidth=1;align=center;verticalAlign=middle;fontFamily=Helvetica;fontSize=10;fontColor=default;labelBackgroundColor=none;endArrow=block;endFill=0;endSize=8;" edge="1" parent="WIyWlLk6GJQsqaUBKTNV-1" source="x6hVaxn2w1FB52t0nsVm-28">
          <mxGeometry relative="1" as="geometry">
            <mxPoint x="620" y="300" as="targetPoint" />
          </mxGeometry>
        </mxCell>
        <mxCell id="x6hVaxn2w1FB52t0nsVm-28" value="Number of remaining Play is recorded" style="rounded=1;whiteSpace=wrap;html=1;fontSize=10;glass=0;strokeWidth=1;shadow=0;" vertex="1" parent="WIyWlLk6GJQsqaUBKTNV-1">
          <mxGeometry x="320" y="600" width="120" height="40" as="geometry" />
        </mxCell>
        <mxCell id="x6hVaxn2w1FB52t0nsVm-37" value="" style="edgeStyle=orthogonalEdgeStyle;shape=connector;rounded=0;orthogonalLoop=1;jettySize=auto;html=1;shadow=0;strokeColor=default;strokeWidth=1;align=center;verticalAlign=middle;fontFamily=Helvetica;fontSize=10;fontColor=default;labelBackgroundColor=none;endArrow=block;endFill=0;endSize=8;entryX=0;entryY=0.5;entryDx=0;entryDy=0;" edge="1" parent="WIyWlLk6GJQsqaUBKTNV-1" source="x6hVaxn2w1FB52t0nsVm-36" target="x6hVaxn2w1FB52t0nsVm-40">
          <mxGeometry relative="1" as="geometry" />
        </mxCell>
        <mxCell id="x6hVaxn2w1FB52t0nsVm-41" value="Yes" style="edgeLabel;html=1;align=center;verticalAlign=middle;resizable=0;points=[];shadow=0;strokeColor=default;strokeWidth=1;spacingLeft=0;spacingRight=0;spacingTop=0;spacing=6;fontFamily=Helvetica;fontSize=10;fontColor=default;fillColor=default;" vertex="1" connectable="0" parent="x6hVaxn2w1FB52t0nsVm-37">
          <mxGeometry x="-0.3786" y="3" relative="1" as="geometry">
            <mxPoint x="-5" y="-7" as="offset" />
          </mxGeometry>
        </mxCell>
        <mxCell id="x6hVaxn2w1FB52t0nsVm-39" style="edgeStyle=orthogonalEdgeStyle;shape=connector;rounded=0;orthogonalLoop=1;jettySize=auto;html=1;entryX=0;entryY=0.5;entryDx=0;entryDy=0;shadow=0;strokeColor=default;strokeWidth=1;align=center;verticalAlign=middle;fontFamily=Helvetica;fontSize=10;fontColor=default;labelBackgroundColor=none;endArrow=block;endFill=0;endSize=8;" edge="1" parent="WIyWlLk6GJQsqaUBKTNV-1" source="x6hVaxn2w1FB52t0nsVm-36" target="x6hVaxn2w1FB52t0nsVm-14">
          <mxGeometry relative="1" as="geometry">
            <mxPoint x="470" y="580" as="targetPoint" />
            <Array as="points">
              <mxPoint x="380" y="570" />
            </Array>
          </mxGeometry>
        </mxCell>
        <mxCell id="x6hVaxn2w1FB52t0nsVm-42" value="No" style="edgeLabel;html=1;align=center;verticalAlign=middle;resizable=0;points=[];shadow=0;strokeColor=default;strokeWidth=1;spacingLeft=0;spacingRight=0;spacingTop=0;spacing=6;fontFamily=Helvetica;fontSize=10;fontColor=default;fillColor=default;" vertex="1" connectable="0" parent="x6hVaxn2w1FB52t0nsVm-39">
          <mxGeometry x="-0.7975" y="-2" relative="1" as="geometry">
            <mxPoint x="12" y="-4" as="offset" />
          </mxGeometry>
        </mxCell>
        <mxCell id="x6hVaxn2w1FB52t0nsVm-36" value="Has the Score reached the Target Score" style="rhombus;html=1;shadow=0;align=center;strokeWidth=1;spacing=6;spacingTop=0;spacingLeft=0;spacingRight=0;whiteSpace=wrap;fontSize=10;fillColor=#fff2cc;strokeColor=#d6b656;" vertex="1" parent="WIyWlLk6GJQsqaUBKTNV-1">
          <mxGeometry x="330" y="480" width="100" height="60" as="geometry" />
        </mxCell>
        <mxCell id="x6hVaxn2w1FB52t0nsVm-40" value="GAME WON" style="rounded=1;whiteSpace=wrap;html=1;fontSize=18;glass=0;strokeWidth=1;shadow=0;fillColor=#dae8fc;strokeColor=#6c8ebf;" vertex="1" parent="WIyWlLk6GJQsqaUBKTNV-1">
          <mxGeometry x="480" y="490" width="120" height="40" as="geometry" />
        </mxCell>
        <mxCell id="x6hVaxn2w1FB52t0nsVm-46" value="" style="edgeStyle=orthogonalEdgeStyle;shape=connector;rounded=0;orthogonalLoop=1;jettySize=auto;html=1;shadow=0;strokeColor=default;strokeWidth=1;align=center;verticalAlign=middle;fontFamily=Helvetica;fontSize=10;fontColor=default;labelBackgroundColor=none;endArrow=block;endFill=0;endSize=8;" edge="1" parent="WIyWlLk6GJQsqaUBKTNV-1" source="x6hVaxn2w1FB52t0nsVm-44" target="x6hVaxn2w1FB52t0nsVm-45">
          <mxGeometry relative="1" as="geometry" />
        </mxCell>
        <mxCell id="x6hVaxn2w1FB52t0nsVm-47" value="Yes" style="edgeLabel;html=1;align=center;verticalAlign=middle;resizable=0;points=[];shadow=0;strokeColor=default;strokeWidth=1;spacingLeft=0;spacingRight=0;spacingTop=0;spacing=6;fontFamily=Helvetica;fontSize=10;fontColor=default;fillColor=default;" vertex="1" connectable="0" parent="x6hVaxn2w1FB52t0nsVm-46">
          <mxGeometry x="-0.5908" y="-2" relative="1" as="geometry">
            <mxPoint y="-12" as="offset" />
          </mxGeometry>
        </mxCell>
        <mxCell id="x6hVaxn2w1FB52t0nsVm-48" value="" style="edgeStyle=orthogonalEdgeStyle;shape=connector;rounded=0;orthogonalLoop=1;jettySize=auto;html=1;shadow=0;strokeColor=default;strokeWidth=1;align=center;verticalAlign=middle;fontFamily=Helvetica;fontSize=10;fontColor=default;labelBackgroundColor=none;endArrow=block;endFill=0;endSize=8;" edge="1" parent="WIyWlLk6GJQsqaUBKTNV-1" source="x6hVaxn2w1FB52t0nsVm-44" target="x6hVaxn2w1FB52t0nsVm-36">
          <mxGeometry relative="1" as="geometry" />
        </mxCell>
        <mxCell id="x6hVaxn2w1FB52t0nsVm-49" value="No" style="edgeLabel;html=1;align=center;verticalAlign=middle;resizable=0;points=[];shadow=0;strokeColor=default;strokeWidth=1;spacingLeft=0;spacingRight=0;spacingTop=0;spacing=6;fontFamily=Helvetica;fontSize=10;fontColor=default;fillColor=default;" vertex="1" connectable="0" parent="x6hVaxn2w1FB52t0nsVm-48">
          <mxGeometry x="-0.6071" relative="1" as="geometry">
            <mxPoint x="10" y="-2" as="offset" />
          </mxGeometry>
        </mxCell>
        <mxCell id="x6hVaxn2w1FB52t0nsVm-44" value="Have Plays remaining" style="rhombus;html=1;shadow=0;align=center;strokeWidth=1;spacing=6;spacingTop=0;spacingLeft=0;spacingRight=0;whiteSpace=wrap;fontSize=10;fillColor=#fff2cc;strokeColor=#d6b656;" vertex="1" parent="WIyWlLk6GJQsqaUBKTNV-1">
          <mxGeometry x="330" y="360" width="100" height="60" as="geometry" />
        </mxCell>
        <mxCell id="x6hVaxn2w1FB52t0nsVm-50" style="edgeStyle=orthogonalEdgeStyle;shape=connector;rounded=0;orthogonalLoop=1;jettySize=auto;html=1;shadow=0;strokeColor=default;strokeWidth=1;align=center;verticalAlign=middle;fontFamily=Helvetica;fontSize=10;fontColor=default;labelBackgroundColor=none;endArrow=block;endFill=0;endSize=8;" edge="1" parent="WIyWlLk6GJQsqaUBKTNV-1" source="x6hVaxn2w1FB52t0nsVm-45">
          <mxGeometry relative="1" as="geometry">
            <mxPoint x="380" y="460" as="targetPoint" />
            <Array as="points">
              <mxPoint x="540" y="460" />
            </Array>
          </mxGeometry>
        </mxCell>
        <mxCell id="x6hVaxn2w1FB52t0nsVm-45" value="Find the best hand with the most score" style="rounded=1;whiteSpace=wrap;html=1;fontSize=10;glass=0;strokeWidth=1;shadow=0;" vertex="1" parent="WIyWlLk6GJQsqaUBKTNV-1">
          <mxGeometry x="480" y="370" width="120" height="40" as="geometry" />
        </mxCell>
      </root>
    </mxGraphModel>
  </diagram>
</mxfile>
